<svg viewBox="0 0 400 300" xmlns="http://www.w3.org/2000/svg" xmlns:xlink="http://www.w3.org/1999/xlink"><linearGradient id="a" gradientUnits="userSpaceOnUse" x1="133.83" x2="270.27" y1="248.51" y2="112.07"><stop offset="0" stop-opacity="0"/><stop offset=".99" stop-color="#006837"/></linearGradient><linearGradient id="b" gradientUnits="userSpaceOnUse" x1="296.48" x2="341.19" y1="185.6" y2="140.89"><stop offset="0" stop-opacity="0"/><stop offset="1" stop-color="#f15a24"/></linearGradient><linearGradient id="c" x1="86.95" x2="131.66" xlink:href="#b" y1="198.44" y2="153.72"/><path d="m36.6 209c26.89 15.2 91.92 53.68 118.06 69.19a22 22 0 0 0 22.37.07l185.77-108.6a7.5 7.5 0 0 0 -.07-13l-118.73-67.66a18.91 18.91 0 0 0 -18.69 0l-188.71 107a7.5 7.5 0 0 0 0 13z" fill="#34b5e2"/><path d="m161.91 192.52-75.64 41.9 44.95 26.9 119.06-67.61" fill="url(#a)"/><path d="m286.58 156.17s1.37 9.61 0 12.37-61.64 44.64-89.58 51.88-52.35 3.71-56.17.19 6.16-23.3 23.78-21.48" fill="#218782"/><path d="m131.22 206.27s-7.5-10.54 10.75-28.1 96.92-61 115.26-63.58 30.6 1.64 34.37 11.26" fill="#68e1fd"/><path d="m131.22 206.27a52.28 52.28 0 0 0 37.56 9.3c22.45-3 44.68-8.81 65.19-21.88s52.62-37.52 52.62-37.52a50.62 50.62 0 0 0 6.11-23.73c.14-13.93-12.48-17.83-24.18-15.88" fill="#68e1fd"/><path d="m151.58 188.87s68.48-41 90.77-45.92 19.52 15.53 19.52 15.53-59 37.82-85.2 42-25.09-11.61-25.09-11.61z" fill="#fbb03b"/><path d="m161.41 169.37v2.32l38.24 22.02 13.32-6.38.73-1.71" fill="#603912"/><path d="m161.41 169.37 39.1 22.36 13.19-6.11-40.56-23.83z" fill="#249aa6"/><path d="m207.79 143.78v2.32l38.24 22.02 13.32-6.38.73-1.71" fill="#603912"/><path d="m207.79 143.78 39.1 22.36 13.19-6.11-40.56-23.83z" fill="#249aa6"/><path d="m238.74 125.16 37 21.17 15.68-14.9s2.22-9.15-8.23-14.64-35.05.01-44.45 8.37z" fill="#68e1fd"/><path d="m238.74 125.16v19.6l23.13 13.72 13.85-12.15z" fill="#68e1fd"/><path d="m238.74 125.16 37 21.17 15.68-14.9s2.22-9.15-8.23-14.64-35.05.01-44.45 8.37z" opacity=".29"/><path d="m238.74 125.16v19.6l23.13 13.72 13.85-12.15z" opacity=".61"/><path d="m132.94 204.66s-5.85-8 9.3-23.91l34.42 19.78s-35.93 7.93-43.72 4.13z" fill="#68e1fd"/><path d="m132.94 204.66s-5.85-8 9.3-23.91l34.42 19.78s-35.93 7.93-43.72 4.13z" opacity=".29"/><path d="m194.82 167.69v-9.8l7 .82-.45 11.05s-6.55 3.24-6.55-2.07z" fill="#ff945f"/><path d="m222.33 145.49s2.3 11.55 2.77 11.9 6.31 1.09 6-.35-1.1-13-1.1-13" fill="#ff945f"/><g fill="#0f2741"><path d="m238.62 159.93c-2.06-.79-6.41-3.67-7.54-5.72-3 1.17-4.6 1.65-7.46.56-.1 2.28-.28 5.58 1.43 6.21 2.77 1 15.39 10.54 16.65 5 .61-2.71 0-4.88-3.08-6.05z"/><path d="m219 82.58s13.73 54.18 12 67.38c-.21 1.57-8.12 2.14-14 0 0 0-10.88-58.67-10.1-65.54"/><path d="m201.86 86.77s-3.83 43-5.7 48.41c-1.54 4.48-4.26 21.72-5.17 27.68a13.07 13.07 0 0 0 11.54 1.41c2.26-8 7.63-27.14 9-31.61 1.71-5.7 4.68-36 4.68-36z"/></g><path d="m221.08 89c.54-9.55 1.17-28.55-2.24-29.38-4.57-1.11-17.34 4.51-20.2 8.37-2 2.72.75 16.37 2.57 24.22 6.36 1.6 14.47.61 19.87-3.21z" fill="#b3b3b3"/><path d="m213.79 55.9a8.46 8.46 0 0 0 3.15-5.08c.61-3.32-2.85-4.91-4.7-4.91 0 0 1.07.76 1.19 1.21 0 0-1.39-1.91-5.07-1.22s-.37 1.33-.37 1.33-3.7-.57-5.76 0-3.09 1.54-2.77 1.89 1.15.05 1.48.29-1.91 1.53-2 2.49 1.6 1.6 1.48 1.82.61 1.19.52 1.54.78 6.07 6.53 5.79" fill="#a0421d"/><path d="m214.41 52.46a.41.41 0 0 0 -.15-.1.41.41 0 0 0 -.18 0 14.91 14.91 0 0 1 -3.26.36c-1.09-.07-2.16-.3-3.24-.36-.46 0-.88.64-1.18 1.66a48.5 48.5 0 0 0 -.28 5.24 5 5 0 0 0 3.63 4.06c1.92.48 3.21-.54 3.9-2.15a17.24 17.24 0 0 0 1.21-6.71v-1.12a1.16 1.16 0 0 0 -.45-.88z" fill="#ffb288"/><path d="m213.9 51.52s-1.2 9.11-7.42 9.5c-3.07.19-4.24-7.42-4.24-7.42s4.76-4.6 8-4.6a3.41 3.41 0 0 1 3.66 2.52z" fill="#a0421d"/><path d="m212.13 57.47c-.08-.44 1-2.23-1.63-1.25s-1.58 3.33 0 3.8" fill="#ffb288"/><path d="m199.61 66.93s-4.46 3.24-2.89 10.84c1.62 7.87 15.07 9.67 20.46 6.86 0 0-4.15-13.46-5.07-13.86" fill="#b3b3b3"/><path d="m216.85 59.49s29.35-10 30.57-8.29c0 0 2.52 4.85.88 8.26 0 0-26.71 13.56-31.44 12.43" fill="#b3b3b3"/><path d="m194.86 167.81s-.4 10.39 1.36 13.36 9.89 1.41 9.71-1.36-3.2-6.61-3.46-9.59-1.25-2.41-1.25-2.41-1.86 3.92-6.36 0z" fill="#0f2741"/><path d="m258.53 46.56c-.53 0-3.27.75-2.92 1.58a1.64 1.64 0 0 0 1.45.83s-1.85.76-1.48 1.59a2 2 0 0 0 1.45 1s-2.15 1-1.42 1.64l.73.63s-.91 1-.15 1.59 3.19.38 3.49-.76a3.89 3.89 0 0 0 0-2s1.19-.75.78-1.47l-.41-.73s1.21-1.14.49-1.59l-.72-.46s.83-1.19.38-1.81-1.67-.04-1.67-.04z" fill="#ffb288"/><path d="m218.16 55 47-16.1 2.1 16.1-48.42 4.62s-3.23-1.62-.68-4.62z" fill="#0f2741"/><ellipse cx="266.34" cy="47.08" fill="#0f2741" rx="6.26" ry="8.18"/><path d="m216.84 62s-.09-2.13 1.09-2.93 1.75 1.23 1.75 1.23l.53-3.63s1.16-.82 3.42 1.86a28.5 28.5 0 0 1 -1.7 4.94c-.68 1-3.89 3-3.89 3l-1.85-1.36z" fill="#ffb288"/><path d="m199.14 82.23s5 4.36 11.5 3.38 9.26-12.37 9.26-12.37-1.9 10.94-7.71 13.53-12.34-.89-12.34-.89z" fill="#39444f"/><path d="m220.71 69.89-7.49-4.4a.51.51 0 0 0 -.73.3c-.87 2.95-4.12 10.33-8.19 6.89-.49-.41-1.2.29-.71.71 1.7 1.44 3.31 2.14 5.15.55a16.25 16.25 0 0 0 4.52-7.27l7 4.08a.5.5 0 0 0 .45-.86z" fill="#39444f"/><path d="m228.55 51.43s2.53.47 2.84 2 .16 4.29-1.42 5.15l3.56-.34s2.54-5-1.86-7.85z" fill="#2f506d"/><path d="m260.77 40.4c.34-.12 6.8 1 6.49 7.24s-4.34 7.77-4.34 7.77l3.42-.14a11.58 11.58 0 0 0 3.05-8.7c-.24-5.65-6.36-7.12-6.36-7.12z" fill="#2f506d"/><ellipse cx="218.34" cy="57.14" fill="#34b5e2" rx=".82" ry="1.2"/><path d="m248.85 44.48s.26-1.32 1.2-1.54a.84.84 0 0 1 1 .77s.32-1.53.83-1.53a.71.71 0 0 1 .65.51s.43-.87 1-.87.88.73.88.73z" fill="#ffb288"/><path d="m212.08 45.6s2.17-.78 3 1.07-2.33 6.83-6.79 9.07-8 2.57-8.84 1.69.4-3.19.4-3.19" fill="#0f2741"/><path d="m210.61 44.17 3 2.87s-2.15 5.29-7.14 7.2-6 1.44-6 1.44l-1.88-4.79" fill="#03090f"/><path d="m208.29 42.86s3.25.33 2.3 2.91-6.76 7.84-11 6.28 5.05-9.59 8.7-9.19z" fill="#0f2741"/><path d="m209.15 62.93a5.73 5.73 0 0 1 -2.21-1.49.68.68 0 0 1 -.18-.32l-.13-.12-1-.12v3.27s1.2 2.13 5.1 1.28l-.15-2.25a3.56 3.56 0 0 1 -1.43-.25z" fill="#e5895a"/><path d="m328.87 168.54c.1-.36.22-.72.33-1.08a22.67 22.67 0 0 0 -3.5-4.23.73.73 0 0 1 -.27-.58l-2.6-1.23-39.4 21.34 7.42 8.17 38.07-21.87a.74.74 0 0 1 -.05-.52z" fill="url(#b)" opacity=".52"/><path d="m321.23 162.94a3.74 3.74 0 0 0 3.21 1c2.34-28.62-23.18-30.05-23.18-30.05 20.03 6.89 20.42 23.55 19.97 29.05z" fill="#009245"/><path d="m325.34 168.49c-1.65-.52 0-39.29 0-39.29l3.42 39.29s-.37.96-3.42 0z" fill="#009245"/><path d="m327.57 167.29c.24-1-2.2-25.44 13.91-31.39a51.7 51.7 0 0 0 -11.23 31.39" fill="#009245"/><path d="m119.34 181.38c.1-.36.22-.72.33-1.08a22.67 22.67 0 0 0 -3.5-4.23.73.73 0 0 1 -.27-.58l-2.6-1.23-39.41 21.34 7.42 8.17 38.07-21.87a.74.74 0 0 1 -.04-.52z" fill="url(#c)" opacity=".52"/><path d="m111.7 175.78a3.74 3.74 0 0 0 3.21 1c2.34-28.62-23.18-30.05-23.18-30.05 20.03 6.89 20.42 23.55 19.97 29.05z" fill="#009245"/><path d="m115.81 181.33c-1.65-.52 0-39.29 0-39.29l3.42 39.29s-.37.96-3.42 0z" fill="#009245"/><path d="m118 180.12c.24-1-2.2-25.44 13.91-31.39a51.7 51.7 0 0 0 -11.23 31.39" fill="#009245"/></svg>