<svg enable-background="new 0 0 73.9 73.9" viewBox="0 0 73.9 73.9" xmlns="http://www.w3.org/2000/svg"><circle cx="37" cy="28.4" fill="none" r="8.8"/><path d="m37 62.6c14.2 0 25.6-11.5 25.6-25.7s-11.5-25.6-25.7-25.6-25.6 11.5-25.6 25.7c0 14.1 11.5 25.6 25.7 25.6zm0-44.9c5.9 0 10.7 4.9 10.7 10.8s-4.9 10.7-10.8 10.7-10.7-4.9-10.7-10.8 4.9-10.7 10.8-10.7zm-17 32c8.8-9.4 23.5-9.9 32.9-1.1l1.1 1.1c.4.4.4 1 0 1.4-.4.4-1 .4-1.4 0-8-8.6-21.5-9-30.1-.9-.3.3-.6.6-.9.9-.4.4-1.1.5-1.5.1s-.5-1-.1-1.5z" fill="none"/><g fill="#a7a9ac"><path d="m37 64.6c15.3 0 27.6-12.4 27.6-27.7s-12.4-27.6-27.7-27.6c-15.2 0-27.6 12.4-27.6 27.7s12.4 27.6 27.7 27.6zm0-53.3c14.2 0 25.6 11.5 25.6 25.7s-11.5 25.7-25.7 25.6c-14.2 0-25.6-11.5-25.6-25.7 0-14.1 11.5-25.6 25.7-25.6z"/><path d="m37 39.2c5.9 0 10.7-4.9 10.7-10.8s-4.9-10.7-10.8-10.7-10.7 4.8-10.7 10.7c0 6 4.8 10.8 10.8 10.8zm0-19.5c4.8 0 8.7 4 8.7 8.8s-4 8.7-8.8 8.7-8.7-4-8.7-8.8 4-8.7 8.8-8.7z"/><path d="m21.4 51.1c8-8.6 21.5-9 30.1-.9l.9.9c.4.4 1 .4 1.4 0 .4-.4.4-1 0-1.4-8.8-9.4-23.5-9.8-32.9-1-.4.3-.7.7-1 1-.4.4-.4 1 0 1.4.5.4 1.1.4 1.5 0z"/></g></svg>